<svg height="512pt" viewBox="0 0 512 512" width="512pt" xmlns="http://www.w3.org/2000/svg"><path d="m256 10c-135.863281 0-246 110.136719-246 246 0 51.847656 16.054688 99.9375 43.441406 139.601562l-22.789062 85.039063 84.816406-22.726563c39.839844 27.78125 88.277344 44.085938 140.53125 44.085938 135.863281 0 246-110.136719 246-246s-110.136719-246-246-246zm0 0" fill="#ffc36e"/><path d="m256 512c-51.0625 0-100.1875-14.933594-142.382812-43.238281l-80.375 21.539062c-3.453126.925781-7.132813-.0625-9.660157-2.589843-2.523437-2.527344-3.511719-6.207032-2.585937-9.660157l21.601562-80.625c-27.882812-41.980469-42.597656-90.773437-42.597656-141.425781 0-68.378906 26.628906-132.667969 74.980469-181.019531 48.351562-48.351563 112.640625-74.980469 181.019531-74.980469 53.308594 0 104.402344 16.226562 147.761719 46.925781 4.507812 3.191407 5.574219 9.429688 2.386719 13.9375-3.191407 4.507813-9.433594 5.574219-13.941407 2.382813-39.964843-28.292969-87.0625-43.246094-136.207031-43.246094-130.132812 0-236 105.867188-236 236 0 48.132812 14.410156 94.4375 41.667969 133.917969 1.667969 2.414062 2.191406 5.4375 1.433593 8.269531l-18.304687 68.308594 68.082031-18.242188c2.851563-.761718 5.890625-.230468 8.308594 1.457032 39.675781 27.664062 86.292969 42.289062 134.8125 42.289062 130.132812 0 236-105.867188 236-236 0-50.347656-15.632812-98.386719-45.203125-138.925781-3.257813-4.464844-2.277344-10.71875 2.183594-13.972657 4.464843-3.257812 10.71875-2.277343 13.972656 2.183594 32.085937 43.988282 49.046875 96.101563 49.046875 150.714844 0 68.378906-26.628906 132.667969-74.980469 181.019531-48.351562 48.351563-112.640625 74.980469-181.019531 74.980469zm0 0"/><path d="m429.304688 81.410156c-.089844-.089844-.183594-.183594-.277344-.273437" fill="#ffc36e"/><path d="m202.320312 223.148438c-5.519531 0-10-4.476563-10-10 0-4.902344-3.988281-8.890626-8.890624-8.890626-4.902344 0-8.890626 3.988282-8.890626 8.890626 0 5.523437-4.476562 10-10 10-5.519531 0-10-4.476563-10-10 0-15.929688 12.960938-28.890626 28.890626-28.890626 15.929687 0 28.890624 12.960938 28.890624 28.890626 0 5.523437-4.476562 10-10 10zm0 0"/><path d="m353.753906 223.148438c-5.523437 0-10-4.476563-10-10 0-4.902344-3.988281-8.890626-8.890625-8.890626-4.902343 0-8.890625 3.988282-8.890625 8.890626 0 5.523437-4.476562 10-10 10-5.523437 0-10-4.476563-10-10 0-15.929688 12.960938-28.890626 28.890625-28.890626 15.929688 0 28.890625 12.960938 28.890625 28.890626 0 5.523437-4.476562 10-10 10zm0 0"/><path d="m259.148438 372.113281c-35.671876 0-64.6875-29.019531-64.6875-64.6875 0-5.523437 4.476562-10 10-10 5.519531 0 10 4.476563 10 10 0 24.640625 20.046874 44.6875 44.6875 44.6875 24.640624 0 44.6875-20.046875 44.6875-44.6875 0-5.523437 4.476562-10 10-10 5.519531 0 10 4.476563 10 10 0 35.667969-29.019532 64.6875-64.6875 64.6875zm0 0"/><path d="m429.03125 91.140625c-2.632812 0-5.210938-1.070313-7.070312-2.929687-1.859376-1.859376-2.929688-4.441407-2.929688-7.070313 0-2.640625 1.066406-5.210937 2.929688-7.070313 1.859374-1.871093 4.4375-2.929687 7.070312-2.929687 2.628906 0 5.207031 1.058594 7.066406 2.929687 1.863282 1.859376 2.933594 4.429688 2.933594 7.070313 0 2.628906-1.070312 5.210937-2.933594 7.070313-1.859375 1.859374-4.4375 2.929687-7.066406 2.929687zm0 0"/></svg>