<?xml version="1.0" encoding="iso-8859-1"?>
<!-- Generator: Adobe Illustrator 19.0.0, SVG Export Plug-In . SVG Version: 6.00 Build 0)  -->
<svg version="1.1" id="Layer_1" xmlns="http://www.w3.org/2000/svg" xmlns:xlink="http://www.w3.org/1999/xlink" x="0px" y="0px"
	 viewBox="0 0 502 502" style="enable-background:new 0 0 502 502;" xml:space="preserve">
<g>
	<g>
		<path d="M428.484,73.516C381.076,26.108,318.044,0,251,0S120.924,26.108,73.516,73.516S0,183.956,0,251
			c0,45.165,12.148,89.465,35.133,128.111c21.857,36.754,52.944,67.539,89.898,89.027C163.128,490.291,206.688,502,251,502
			s87.872-11.709,125.969-33.862c36.955-21.488,68.041-52.273,89.898-89.027C489.852,340.465,502,296.165,502,251
			C502,183.956,475.892,120.924,428.484,73.516z M251,20c127.374,0,231,103.626,231,231c0,36.037-8.402,71.474-24.416,103.433
			c-21.018-30.387-48.616-55.964-80.616-74.571c-23.028-13.39-48.053-22.957-74.032-28.436C331.735,233.852,351,202.134,351,166
			c0-55.14-44.86-100-100-100s-100,44.86-100,100c0,36.134,19.265,67.852,48.063,85.425c-25.979,5.479-51.004,15.047-74.032,28.436
			c-32,18.607-59.598,44.184-80.616,74.571C28.402,322.474,20,287.037,20,251C20,123.626,123.626,20,251,20z M251,246
			c-44.112,0-80-35.888-80-80s35.888-80,80-80s80,35.888,80,80S295.112,246,251,246z M251,482
			c-79.055,0-153.423-41.229-195.542-107.993C97.576,307.237,171.941,266,251,266s153.424,41.237,195.542,108.007
			C404.423,440.771,330.055,482,251,482z"/>
		<path d="M105.06,343.8c-7.946,7.66-15.357,16.001-22.027,24.794c-3.337,4.4-2.477,10.673,1.924,14.011
			c1.807,1.371,3.93,2.033,6.036,2.033c3.021,0,6.008-1.364,7.975-3.957c6.047-7.972,12.767-15.536,19.973-22.48
			c3.976-3.833,4.093-10.164,0.26-14.14C115.368,340.084,109.038,339.968,105.06,343.8z"/>
		<path d="M212.841,117.131C197.69,128.976,189,146.788,189,166c0,5.523,4.477,10,10,10s10-4.477,10-10
			c0-13.015,5.89-25.084,16.159-33.112c4.351-3.402,5.121-9.687,1.719-14.038C223.476,114.499,217.191,113.729,212.841,117.131z"/>
		<path d="M279.628,110.993C270.852,106.418,260.953,104,251,104c-5.523,0-10,4.477-10,10s4.477,10,10,10
			c6.843,0,13.365,1.591,19.383,4.728c1.477,0.77,3.057,1.134,4.614,1.134c3.608,0,7.093-1.958,8.876-5.379
			C286.426,119.585,284.525,113.546,279.628,110.993z"/>
	</g>
</g>
<g>
</g>
<g>
</g>
<g>
</g>
<g>
</g>
<g>
</g>
<g>
</g>
<g>
</g>
<g>
</g>
<g>
</g>
<g>
</g>
<g>
</g>
<g>
</g>
<g>
</g>
<g>
</g>
<g>
</g>
</svg>
